<mxfile host="app.diagrams.net" modified="2024-02-28T17:40:28.381Z" agent="Mozilla/5.0 (Macintosh; Intel Mac OS X 10_15_7) AppleWebKit/605.1.15 (KHTML, like Gecko) Version/17.3.1 Safari/605.1.15" etag="oDjG6WTIQqi6BXAhAqhP" version="23.1.2" type="device">
  <diagram name="Page-1" id="kA0PUmwpZa1d1uk-PSQK">
    <mxGraphModel dx="3238" dy="2514" grid="1" gridSize="10" guides="1" tooltips="1" connect="1" arrows="1" fold="1" page="1" pageScale="1" pageWidth="850" pageHeight="1100" math="0" shadow="0">
      <root>
        <mxCell id="0" />
        <mxCell id="1" parent="0" />
        <mxCell id="HaPhE-Oox-nstO3W0On4-47" value="" style="edgeStyle=orthogonalEdgeStyle;rounded=0;orthogonalLoop=1;jettySize=auto;html=1;" edge="1" parent="1" source="HaPhE-Oox-nstO3W0On4-1" target="HaPhE-Oox-nstO3W0On4-45">
          <mxGeometry relative="1" as="geometry" />
        </mxCell>
        <mxCell id="HaPhE-Oox-nstO3W0On4-1" value="machine-details" style="rounded=0;whiteSpace=wrap;html=1;" vertex="1" parent="1">
          <mxGeometry x="630" y="80" width="120" height="60" as="geometry" />
        </mxCell>
        <mxCell id="HaPhE-Oox-nstO3W0On4-2" value="auth-service" style="rounded=0;whiteSpace=wrap;html=1;" vertex="1" parent="1">
          <mxGeometry x="80" y="340" width="120" height="60" as="geometry" />
        </mxCell>
        <mxCell id="HaPhE-Oox-nstO3W0On4-5" style="edgeStyle=orthogonalEdgeStyle;rounded=0;orthogonalLoop=1;jettySize=auto;html=1;entryX=0.5;entryY=0;entryDx=0;entryDy=0;" edge="1" parent="1" source="HaPhE-Oox-nstO3W0On4-3" target="HaPhE-Oox-nstO3W0On4-2">
          <mxGeometry relative="1" as="geometry" />
        </mxCell>
        <mxCell id="HaPhE-Oox-nstO3W0On4-3" value="" style="shape=cylinder3;whiteSpace=wrap;html=1;boundedLbl=1;backgroundOutline=1;size=15;" vertex="1" parent="1">
          <mxGeometry x="110" y="210" width="60" height="70" as="geometry" />
        </mxCell>
        <mxCell id="HaPhE-Oox-nstO3W0On4-4" value="user - login, password, scope" style="rounded=0;whiteSpace=wrap;html=1;" vertex="1" parent="1">
          <mxGeometry x="-200" y="240" width="240" height="60" as="geometry" />
        </mxCell>
        <mxCell id="HaPhE-Oox-nstO3W0On4-7" style="edgeStyle=orthogonalEdgeStyle;rounded=0;orthogonalLoop=1;jettySize=auto;html=1;entryX=0;entryY=1;entryDx=0;entryDy=-15;entryPerimeter=0;" edge="1" parent="1" source="HaPhE-Oox-nstO3W0On4-4" target="HaPhE-Oox-nstO3W0On4-3">
          <mxGeometry relative="1" as="geometry" />
        </mxCell>
        <mxCell id="HaPhE-Oox-nstO3W0On4-13" style="edgeStyle=orthogonalEdgeStyle;rounded=0;orthogonalLoop=1;jettySize=auto;html=1;" edge="1" parent="1" source="HaPhE-Oox-nstO3W0On4-10" target="HaPhE-Oox-nstO3W0On4-3">
          <mxGeometry relative="1" as="geometry" />
        </mxCell>
        <mxCell id="HaPhE-Oox-nstO3W0On4-10" value="&lt;div style=&quot;border-color: var(--border-color); caret-color: rgb(35, 47, 62); color: rgb(35, 47, 62); font-family: Helvetica; font-size: 12px; font-style: normal; font-variant-caps: normal; font-weight: 400; letter-spacing: normal; text-align: center; text-indent: 0px; text-transform: none; word-spacing: 0px; -webkit-text-stroke-width: 0px; text-decoration: none;&quot;&gt;event&lt;/div&gt;&lt;div style=&quot;border-color: var(--border-color); caret-color: rgb(35, 47, 62); color: rgb(35, 47, 62); font-family: Helvetica; font-size: 12px; font-style: normal; font-variant-caps: normal; font-weight: 400; letter-spacing: normal; text-align: center; text-indent: 0px; text-transform: none; word-spacing: 0px; -webkit-text-stroke-width: 0px; text-decoration: none;&quot;&gt;&lt;span style=&quot;border-color: var(--border-color); caret-color: rgb(0, 0, 0); color: rgb(0, 0, 0);&quot;&gt;user-create/update/delete&lt;/span&gt;&lt;/div&gt;" style="sketch=0;outlineConnect=0;fontColor=#232F3E;gradientColor=none;strokeColor=#232F3E;fillColor=#ffffff;dashed=0;verticalLabelPosition=top;verticalAlign=bottom;align=center;html=1;fontSize=12;fontStyle=0;aspect=fixed;shape=mxgraph.aws4.resourceIcon;resIcon=mxgraph.aws4.queue;labelPosition=center;" vertex="1" parent="1">
          <mxGeometry x="110" y="100" width="60" height="60" as="geometry" />
        </mxCell>
        <mxCell id="HaPhE-Oox-nstO3W0On4-20" style="edgeStyle=orthogonalEdgeStyle;rounded=0;orthogonalLoop=1;jettySize=auto;html=1;" edge="1" parent="1" source="HaPhE-Oox-nstO3W0On4-14" target="HaPhE-Oox-nstO3W0On4-10">
          <mxGeometry relative="1" as="geometry" />
        </mxCell>
        <mxCell id="HaPhE-Oox-nstO3W0On4-21" value="user events" style="edgeLabel;html=1;align=center;verticalAlign=middle;resizable=0;points=[];" vertex="1" connectable="0" parent="HaPhE-Oox-nstO3W0On4-20">
          <mxGeometry x="-0.3091" y="2" relative="1" as="geometry">
            <mxPoint as="offset" />
          </mxGeometry>
        </mxCell>
        <mxCell id="HaPhE-Oox-nstO3W0On4-26" style="edgeStyle=orthogonalEdgeStyle;rounded=0;orthogonalLoop=1;jettySize=auto;html=1;" edge="1" parent="1" source="HaPhE-Oox-nstO3W0On4-14" target="HaPhE-Oox-nstO3W0On4-25">
          <mxGeometry relative="1" as="geometry">
            <mxPoint x="-60" y="30" as="targetPoint" />
            <Array as="points">
              <mxPoint x="-60" y="40" />
            </Array>
          </mxGeometry>
        </mxCell>
        <mxCell id="HaPhE-Oox-nstO3W0On4-14" value="&lt;div style=&quot;&quot;&gt;user-service&lt;/div&gt;&lt;div style=&quot;&quot;&gt;create/update/delete user&lt;/div&gt;" style="rounded=0;whiteSpace=wrap;html=1;align=center;" vertex="1" parent="1">
          <mxGeometry x="-120" y="100" width="120" height="60" as="geometry" />
        </mxCell>
        <mxCell id="HaPhE-Oox-nstO3W0On4-16" style="edgeStyle=orthogonalEdgeStyle;rounded=0;orthogonalLoop=1;jettySize=auto;html=1;entryX=0;entryY=0.5;entryDx=0;entryDy=0;" edge="1" parent="1" source="HaPhE-Oox-nstO3W0On4-15" target="HaPhE-Oox-nstO3W0On4-14">
          <mxGeometry relative="1" as="geometry" />
        </mxCell>
        <mxCell id="HaPhE-Oox-nstO3W0On4-15" value="" style="shape=cylinder3;whiteSpace=wrap;html=1;boundedLbl=1;backgroundOutline=1;size=15;" vertex="1" parent="1">
          <mxGeometry x="-230" y="90" width="60" height="80" as="geometry" />
        </mxCell>
        <mxCell id="HaPhE-Oox-nstO3W0On4-27" style="edgeStyle=orthogonalEdgeStyle;rounded=0;orthogonalLoop=1;jettySize=auto;html=1;entryX=0.5;entryY=0;entryDx=0;entryDy=0;" edge="1" parent="1" source="HaPhE-Oox-nstO3W0On4-25" target="HaPhE-Oox-nstO3W0On4-1">
          <mxGeometry relative="1" as="geometry">
            <Array as="points">
              <mxPoint x="690" y="40" />
            </Array>
          </mxGeometry>
        </mxCell>
        <mxCell id="HaPhE-Oox-nstO3W0On4-28" value="userId - machineId" style="edgeLabel;html=1;align=center;verticalAlign=middle;resizable=0;points=[];" vertex="1" connectable="0" parent="HaPhE-Oox-nstO3W0On4-27">
          <mxGeometry x="-0.4185" y="2" relative="1" as="geometry">
            <mxPoint as="offset" />
          </mxGeometry>
        </mxCell>
        <mxCell id="HaPhE-Oox-nstO3W0On4-25" value="&lt;div style=&quot;border-color: var(--border-color); caret-color: rgb(35, 47, 62); color: rgb(35, 47, 62); font-family: Helvetica; font-size: 12px; font-style: normal; font-variant-caps: normal; font-weight: 400; letter-spacing: normal; text-align: center; text-indent: 0px; text-transform: none; word-spacing: 0px; -webkit-text-stroke-width: 0px; text-decoration: none;&quot;&gt;event&lt;/div&gt;&lt;div style=&quot;border-color: var(--border-color); caret-color: rgb(35, 47, 62); color: rgb(35, 47, 62); font-family: Helvetica; font-size: 12px; font-style: normal; font-variant-caps: normal; font-weight: 400; letter-spacing: normal; text-align: center; text-indent: 0px; text-transform: none; word-spacing: 0px; -webkit-text-stroke-width: 0px; text-decoration: none;&quot;&gt;user-machine relation update&lt;/div&gt;" style="sketch=0;outlineConnect=0;fontColor=#232F3E;gradientColor=none;strokeColor=#232F3E;fillColor=#ffffff;dashed=0;verticalLabelPosition=top;verticalAlign=bottom;align=center;html=1;fontSize=12;fontStyle=0;aspect=fixed;shape=mxgraph.aws4.resourceIcon;resIcon=mxgraph.aws4.queue;labelPosition=center;" vertex="1" parent="1">
          <mxGeometry x="410" y="10" width="60" height="60" as="geometry" />
        </mxCell>
        <mxCell id="HaPhE-Oox-nstO3W0On4-29" value="user - login, password, scope&lt;br&gt;user-machine relation&lt;br&gt;&amp;nbsp;machine (id,vin)" style="rounded=0;whiteSpace=wrap;html=1;" vertex="1" parent="1">
          <mxGeometry x="-530" y="100" width="240" height="60" as="geometry" />
        </mxCell>
        <mxCell id="HaPhE-Oox-nstO3W0On4-30" style="edgeStyle=orthogonalEdgeStyle;rounded=0;orthogonalLoop=1;jettySize=auto;html=1;entryX=0;entryY=0.5;entryDx=0;entryDy=0;entryPerimeter=0;" edge="1" parent="1" source="HaPhE-Oox-nstO3W0On4-29" target="HaPhE-Oox-nstO3W0On4-15">
          <mxGeometry relative="1" as="geometry" />
        </mxCell>
        <mxCell id="HaPhE-Oox-nstO3W0On4-34" style="edgeStyle=orthogonalEdgeStyle;rounded=0;orthogonalLoop=1;jettySize=auto;html=1;" edge="1" parent="1" source="HaPhE-Oox-nstO3W0On4-31" target="HaPhE-Oox-nstO3W0On4-32">
          <mxGeometry relative="1" as="geometry" />
        </mxCell>
        <mxCell id="HaPhE-Oox-nstO3W0On4-31" value="machine-factory" style="rounded=0;whiteSpace=wrap;html=1;" vertex="1" parent="1">
          <mxGeometry x="380" y="-350" width="120" height="60" as="geometry" />
        </mxCell>
        <mxCell id="HaPhE-Oox-nstO3W0On4-36" style="edgeStyle=orthogonalEdgeStyle;rounded=0;orthogonalLoop=1;jettySize=auto;html=1;entryX=0.75;entryY=0;entryDx=0;entryDy=0;" edge="1" parent="1" source="HaPhE-Oox-nstO3W0On4-32" target="HaPhE-Oox-nstO3W0On4-1">
          <mxGeometry relative="1" as="geometry" />
        </mxCell>
        <mxCell id="HaPhE-Oox-nstO3W0On4-32" value="&lt;div style=&quot;border-color: var(--border-color); caret-color: rgb(35, 47, 62); color: rgb(35, 47, 62); font-family: Helvetica; font-size: 12px; font-style: normal; font-variant-caps: normal; font-weight: 400; letter-spacing: normal; text-align: center; text-indent: 0px; text-transform: none; word-spacing: 0px; -webkit-text-stroke-width: 0px; text-decoration: none;&quot;&gt;event&lt;/div&gt;&lt;div style=&quot;border-color: var(--border-color); caret-color: rgb(35, 47, 62); color: rgb(35, 47, 62); font-family: Helvetica; font-size: 12px; font-style: normal; font-variant-caps: normal; font-weight: 400; letter-spacing: normal; text-align: center; text-indent: 0px; text-transform: none; word-spacing: 0px; -webkit-text-stroke-width: 0px; text-decoration: none;&quot;&gt;&lt;span style=&quot;border-color: var(--border-color); caret-color: rgb(0, 0, 0); color: rgb(0, 0, 0);&quot;&gt;machine-create/delete&lt;/span&gt;&lt;/div&gt;" style="sketch=0;outlineConnect=0;fontColor=#232F3E;gradientColor=none;strokeColor=#232F3E;fillColor=#ffffff;dashed=0;verticalLabelPosition=bottom;verticalAlign=top;align=center;html=1;fontSize=12;fontStyle=0;aspect=fixed;shape=mxgraph.aws4.resourceIcon;resIcon=mxgraph.aws4.queue;labelPosition=center;" vertex="1" parent="1">
          <mxGeometry x="410" y="-190" width="60" height="60" as="geometry" />
        </mxCell>
        <mxCell id="HaPhE-Oox-nstO3W0On4-35" style="edgeStyle=orthogonalEdgeStyle;rounded=0;orthogonalLoop=1;jettySize=auto;html=1;entryX=0.167;entryY=0.033;entryDx=0;entryDy=0;entryPerimeter=0;" edge="1" parent="1" source="HaPhE-Oox-nstO3W0On4-32" target="HaPhE-Oox-nstO3W0On4-14">
          <mxGeometry relative="1" as="geometry" />
        </mxCell>
        <mxCell id="HaPhE-Oox-nstO3W0On4-43" value="" style="edgeStyle=orthogonalEdgeStyle;rounded=0;orthogonalLoop=1;jettySize=auto;html=1;" edge="1" parent="1" source="HaPhE-Oox-nstO3W0On4-38" target="HaPhE-Oox-nstO3W0On4-39">
          <mxGeometry relative="1" as="geometry" />
        </mxCell>
        <mxCell id="HaPhE-Oox-nstO3W0On4-38" value="machine-location-service" style="rounded=0;whiteSpace=wrap;html=1;" vertex="1" parent="1">
          <mxGeometry x="1010" y="-40" width="120" height="60" as="geometry" />
        </mxCell>
        <mxCell id="HaPhE-Oox-nstO3W0On4-44" style="edgeStyle=orthogonalEdgeStyle;rounded=0;orthogonalLoop=1;jettySize=auto;html=1;entryX=1;entryY=0.5;entryDx=0;entryDy=0;" edge="1" parent="1" source="HaPhE-Oox-nstO3W0On4-39" target="HaPhE-Oox-nstO3W0On4-1">
          <mxGeometry relative="1" as="geometry" />
        </mxCell>
        <mxCell id="HaPhE-Oox-nstO3W0On4-39" value="&lt;div style=&quot;border-color: var(--border-color); caret-color: rgb(35, 47, 62); color: rgb(35, 47, 62); font-family: Helvetica; font-size: 12px; font-style: normal; font-variant-caps: normal; font-weight: 400; letter-spacing: normal; text-align: center; text-indent: 0px; text-transform: none; word-spacing: 0px; -webkit-text-stroke-width: 0px; text-decoration: none;&quot;&gt;event&lt;/div&gt;&lt;div style=&quot;border-color: var(--border-color); caret-color: rgb(35, 47, 62); color: rgb(35, 47, 62); font-family: Helvetica; font-size: 12px; font-style: normal; font-variant-caps: normal; font-weight: 400; letter-spacing: normal; text-align: center; text-indent: 0px; text-transform: none; word-spacing: 0px; -webkit-text-stroke-width: 0px; text-decoration: none;&quot;&gt;location update&lt;/div&gt;" style="sketch=0;outlineConnect=0;fontColor=#232F3E;gradientColor=none;strokeColor=#232F3E;fillColor=#ffffff;dashed=0;verticalLabelPosition=top;verticalAlign=bottom;align=center;html=1;fontSize=12;fontStyle=0;aspect=fixed;shape=mxgraph.aws4.resourceIcon;resIcon=mxgraph.aws4.queue;labelPosition=center;" vertex="1" parent="1">
          <mxGeometry x="920" y="-40" width="60" height="60" as="geometry" />
        </mxCell>
        <mxCell id="HaPhE-Oox-nstO3W0On4-45" value="" style="shape=cylinder3;whiteSpace=wrap;html=1;boundedLbl=1;backgroundOutline=1;size=15;" vertex="1" parent="1">
          <mxGeometry x="670" y="220" width="60" height="80" as="geometry" />
        </mxCell>
        <mxCell id="HaPhE-Oox-nstO3W0On4-49" value="" style="edgeStyle=orthogonalEdgeStyle;rounded=0;orthogonalLoop=1;jettySize=auto;html=1;" edge="1" parent="1" source="HaPhE-Oox-nstO3W0On4-48" target="HaPhE-Oox-nstO3W0On4-45">
          <mxGeometry relative="1" as="geometry" />
        </mxCell>
        <mxCell id="HaPhE-Oox-nstO3W0On4-48" value="user-machine relation&lt;br&gt;machine details" style="rounded=0;whiteSpace=wrap;html=1;" vertex="1" parent="1">
          <mxGeometry x="520" y="230" width="120" height="60" as="geometry" />
        </mxCell>
      </root>
    </mxGraphModel>
  </diagram>
</mxfile>
